<svg height="464pt" viewBox="0 -20 464 464" width="464pt" xmlns="http://www.w3.org/2000/svg">
    <path d="m91.792969 190.089844c1.863281-2.945313 3.773437-5.777344 5.671875-8.472656 7.800781-11.050782 14.535156-20.59375 14.535156-40.730469 0-20.132813-6.734375-29.679688-14.535156-40.726563-8.183594-11.601562-17.464844-24.753906-17.464844-49.960937 0-25.199219 9.28125-38.335938 17.472656-49.933594.0625-.089844.121094-.1757812.183594-.265625-36.734375 4.3125-65.65625 45.503906-65.65625 95.574219 0 47.378906 25.894531 86.746093 59.792969 94.515625zm0 0"/>
    <path d="m110.535156 90.929688c8.183594 11.605468 17.464844 24.75 17.464844 49.957031 0 25.210937-9.28125 38.359375-17.464844 49.960937-.070312.105469-.136718.199219-.207031.304688 36.742187-4.296875 65.671875-45.488282 65.671875-95.578125 0-47.375-25.902344-86.75-59.800781-94.511719-1.863281 2.9375-3.765625 5.761719-5.65625 8.441406-7.808594 11.039063-14.542969 20.574219-14.542969 40.695313 0 20.136719 6.734375 29.679687 14.535156 40.730469zm0 0"/>
    <path d="m56 375.574219c0 8.839843 7.160156 16 16 16s16-7.160157 16-16v-16c0-8.839844 7.160156-16 16-16s16 7.160156 16 16v48c0 8.839843 7.160156 16 16 16s16-7.160157 16-16v-88h-96zm0 0"/>
    <path d="m448 263.574219c-11.3125 0-17.28125-5.980469-21.648438-10.34375-3.910156-3.917969-5.832031-5.65625-10.320312-5.65625s-6.40625 1.738281-10.328125 5.65625c-4.367187 4.363281-10.34375 10.34375-21.648437 10.34375-11.320313 0-17.292969-5.972657-21.664063-10.335938-3.925781-3.925781-5.855469-5.664062-10.367187-5.664062-4.503907 0-6.429688 1.738281-10.351563 5.664062-4.367187 4.363281-10.351563 10.335938-21.671875 10.335938h-30.703125l-17.296875 5.769531v20.472656l17.296875 5.757813h158.703125c8.824219 0 16-7.175781 16-16 0-8.820313-7.175781-16-16-16zm0 0"/>
    <path d="m0 239.574219h208v16h-208zm0 0"/>
    <path d="m212.496094 287.574219h43.503906v-16h-34.480469c-2.398437 5.753906-5.441406 11.105469-9.023437 16zm0 0"/>
    <path d="m56.296875 303.535156 1.128906.039063h91.972657c22.914062 0 43.53125-12.496094 54.34375-32h-199.4375c10.457031 18.699219 30.128906 31.152343 51.992187 31.960937zm0 0"/>
</svg>