<?xml version="1.0" standalone="no"?>
<!DOCTYPE svg PUBLIC "-//W3C//DTD SVG 20010904//EN"
 "http://www.w3.org/TR/2001/REC-SVG-20010904/DTD/svg10.dtd">
<svg version="1.0" xmlns="http://www.w3.org/2000/svg"
 width="464.000000pt" height="459.000000pt" viewBox="0 0 464.000000 459.000000"
 preserveAspectRatio="xMidYMid meet">
<metadata>
Created by potrace 1.16, written by Peter Selinger 2001-2019
</metadata>
<g transform="translate(0.000000,459.000000) scale(0.100000,-0.100000)"
   style="fill:rgba(201, 171, 129, 0.69);" stroke="none">
<path d="M2145 4564 c-285 -29 -475 -75 -710 -171 -315 -128 -631 -355 -843
-606 -297 -351 -471 -730 -538 -1172 -25 -162 -25 -483 -1 -645 76 -503 293
-935 647 -1290 350 -351 783 -569 1282 -647 158 -24 499 -24 658 1 914 141
1644 795 1874 1678 206 788 -18 1612 -594 2188 -351 351 -788 571 -1280 645
-102 15 -414 27 -495 19z m495 -69 c885 -134 1614 -792 1828 -1650 234 -936
-132 -1885 -932 -2416 -263 -175 -544 -284 -876 -341 -168 -29 -509 -31 -675
-5 -644 105 -1172 440 -1529 972 -183 271 -301 579 -353 915 -24 158 -24 481
0 640 113 733 556 1344 1216 1675 246 124 505 196 816 229 82 8 403 -4 505
-19z"/>
<path d="M2140 4443 c-585 -56 -1068 -298 -1450 -726 -470 -525 -650 -1281
-469 -1967 258 -977 1161 -1648 2164 -1606 381 15 730 121 1051 317 259 157
537 435 703 703 389 625 425 1428 94 2090 -111 221 -224 377 -408 561 -247
247 -524 420 -843 525 -262 86 -597 127 -842 103z m361 -53 c633 -62 1197
-398 1551 -925 499 -742 472 -1716 -66 -2435 -93 -125 -297 -329 -416 -417
-501 -368 -1095 -501 -1692 -378 -403 82 -760 276 -1058 575 -246 245 -409
509 -514 830 -170 523 -132 1082 108 1575 383 786 1224 1259 2087 1175z"/>
<path d="M1635 3225 c-388 -585 -625 -951 -621 -960 5 -13 49 -15 311 -15
l305 0 2 -932 3 -933 635 0 635 0 3 932 2 933 307 2 c264 3 308 5 310 18 4 20
-1231 1894 -1249 1898 -10 2 -230 -321 -643 -943z m1462 -375 l359 -545 -296
-5 -295 -5 -3 -932 -2 -933 -590 0 -590 0 -2 933 -3 932 -293 3 c-178 1 -292
6 -290 12 2 5 269 410 593 899 l590 890 232 -352 c127 -194 393 -597 590 -897z"/>
<path d="M1770 3180 c-282 -448 -489 -788 -486 -796 4 -12 47 -14 241 -14
l235 0 0 -914 c0 -759 2 -915 14 -925 9 -8 152 -10 512 -9 l499 3 3 923 2 922
235 0 c198 0 237 2 241 15 7 18 -968 1569 -989 1573 -10 2 -175 -252 -507
-778z m973 -35 l454 -720 -226 -5 -226 -5 -3 -922 -2 -923 -465 0 -465 0 -2
922 -3 923 -226 5 -225 5 460 732 c265 419 464 726 468 720 4 -7 211 -336 461
-732z"/>
</g>
</svg>
